# xmcd CD database file
#
# Track frame offsets:
#	150
#	22087
#	59314
#
# Disc length: 1081 seconds
#
# Revision: 0
# Processed by: cddbd v1.5.1PL0 Copyright (c) Steve Scherf et al.
# Submitted via: CDex 1.51
#
DISCID=21043703
DTITLE=The Gospellers - カレンダー
DYEAR=1996
DGENRE=JPop
TTITLE0=カレンダー
TTITLE1=Summer Time Romances-MEDLEY-
TTITLE2=カレンダー(オリジナルカラオケ)
EXTD=YEAR: 1996
EXTT0=
EXTT1=
EXTT2=
PLAYORDER=
